<?xml version="1.0" encoding="UTF-8"?>
<!DOCTYPE svg PUBLIC "-//W3C//DTD SVG 1.1//EN" "http://www.w3.org/Graphics/SVG/1.1/DTD/svg11.dtd">
<!-- Creator: CorelDRAW -->
<svg xmlns="http://www.w3.org/2000/svg" xml:space="preserve" width="2048px" height="2048px" style="shape-rendering:geometricPrecision; text-rendering:geometricPrecision; image-rendering:optimizeQuality; fill-rule:evenodd; clip-rule:evenodd"
viewBox="0 0 2048 2048"
 xmlns:xlink="http://www.w3.org/1999/xlink">
 <defs>
  <style type="text/css">
   <![CDATA[
    .fil6 {fill:none}
    .fil1 {fill:#2E7D32}
    .fil5 {fill:#43A047}
    .fil2 {fill:#66BB6A}
    .fil4 {fill:#D32F2F}
    .fil3 {fill:white}
    .fil0 {fill:#37474F;fill-rule:nonzero}
   ]]>
  </style>
 </defs>
 <g id="Layer_x0020_1">
  <metadata id="CorelCorpID_0Corel-Layer"/>
  <g id="_355511264">
   <polygon id="_355506944" class="fil0" points="444.618,574.117 444.618,895.998 704.001,895.998 704.001,960 412.617,960 380.616,960 380.616,927.999 380.616,574.117 "/>
   <polygon id="_355507016" class="fil0" points="380.616,1473.88 380.616,1120 380.616,1088 412.617,1088 704.001,1088 704.001,1152 444.618,1152 444.618,1473.88 "/>
   <polygon id="_355507160" class="fil0" points="1667.38,574.117 1667.38,927.999 1667.38,960 1635.38,960 1344,960 1344,895.998 1603.38,895.998 1603.38,574.117 "/>
   <polygon id="_355506728" class="fil0" points="1603.38,1473.88 1603.38,1152 1344,1152 1344,1088 1635.38,1088 1667.38,1088 1667.38,1120 1667.38,1473.88 "/>
   <rect id="_355507328" class="fil1" x="687.126" y="682.658" width="673.749" height="606.337"/>
   <path id="_355507088" class="fil2" d="M781.045 652.056c-58.0276,9.28347 -93.919,20.2193 -93.919,30.6012 0,10.3819 35.8925,21.3166 93.919,30.6 62.0008,9.92009 147.885,16.0571 242.955,16.0571 95.0705,0 180.954,-6.13701 242.955,-16.0571 58.0264,-9.28347 93.919,-20.2181 93.919,-30.6 0,-10.3819 -35.8914,-21.3177 -93.919,-30.6012 -62.0008,-9.92009 -147.885,-16.0559 -242.955,-16.0559 -95.0705,0 -180.954,6.13583 -242.955,16.0559z"/>
   <path id="_355507304" class="fil2" d="M687.126 704.089l0 134.479c0.765355,1.2874 1.20473,2.79095 1.20473,4.39607 0,10.402 35.6622,21.3449 93.4796,30.6272 61.689,9.90473 147.206,16.0299 242.19,16.0299 95.0705,0 180.954,-6.13583 242.955,-16.0559 58.0276,-9.28347 93.919,-20.2193 93.919,-30.6012l0 -138.875c-18.1358,10.6004 -49.7953,19.5166 -91.2237,26.1449 -63.0437,10.0866 -149.908,16.3252 -245.651,16.3252 -95.7426,0 -182.607,-6.23859 -245.651,-16.3252 -41.4284,-6.62835 -73.0879,-15.5445 -91.2237,-26.1449z"/>
   <path id="_355506608" class="fil2" d="M687.126 863.733l0 148.961c0.765355,1.2874 1.20473,2.79095 1.20473,4.39725 0,10.402 35.6622,21.3437 93.4784,30.6272 61.689,9.90355 147.207,16.0288 242.191,16.0288 95.0705,0 180.956,-6.13583 242.956,-16.0547 58.0264,-9.28465 93.9178,-20.2193 93.9178,-30.6024l0 -152.693c-18.1358,10.6004 -49.7953,19.5166 -91.2237,26.1437 -63.0437,10.0866 -149.908,16.3264 -245.651,16.3264 -95.6611,0 -182.158,-6.22914 -244.885,-16.3004 -42.1737,-6.77127 -74.1438,-15.9307 -91.989,-26.8335z"/>
   <path id="_355506176" class="fil2" d="M779.115 1064.69c-42.1748,-6.77127 -74.1438,-15.9307 -91.989,-26.8335l0 148.961c0.765355,1.2874 1.20473,2.79095 1.20473,4.39725 0,10.402 35.6622,21.3437 93.4796,30.6272 61.689,9.90355 147.206,16.0288 242.19,16.0288 95.0705,0 180.954,-6.13583 242.955,-16.0559 58.0264,-9.28347 93.919,-20.2181 93.919,-30.6012l0 -152.694c-18.1358,10.6016 -49.7953,19.5166 -91.2237,26.1449 -63.0426,10.0854 -149.909,16.3252 -245.651,16.3252 -95.6611,0 -182.158,-6.22796 -244.885,-16.2992z"/>
   <path id="_355506080" class="fil2" d="M1024 1255.12c-95.6611,0 -182.158,-6.22796 -244.885,-16.2992 -42.1737,-6.77245 -74.1438,-15.9319 -91.989,-26.8335l0 148.961c0.765355,1.2874 1.20473,2.78977 1.20473,4.39607 0,10.402 35.6622,21.3449 93.4796,30.6272 61.689,9.90473 147.206,16.0299 242.19,16.0299 95.0705,0 180.954,-6.13583 242.955,-16.0559 58.0276,-9.28347 93.919,-20.2193 93.919,-30.6012l0 -152.694c-18.1358,10.6004 -49.7953,19.5166 -91.2237,26.1449 -63.0437,10.0854 -149.908,16.3252 -245.651,16.3252z"/>
   <g>
    <ellipse id="_355505864" class="fil3" cx="1313.59" cy="765.97" rx="18.8003" ry="18.8003"/>
    <ellipse id="_355506536" class="fil3" cx="1313.59" cy="827.74" rx="18.8003" ry="18.8003"/>
    <ellipse id="_355506056" class="fil4" cx="1313.59" cy="765.97" rx="14.7589" ry="14.7588"/>
    <ellipse id="_355506416" class="fil2" cx="1313.59" cy="827.74" rx="14.7589" ry="14.7588"/>
   </g>
   <g>
    <ellipse id="_355506488" class="fil3" cx="1313.59" cy="932.855" rx="18.8003" ry="18.8003"/>
    <ellipse id="_355506560" class="fil3" cx="1313.59" cy="994.625" rx="18.8003" ry="18.8003"/>
    <ellipse id="_355505528" class="fil4" cx="1313.59" cy="932.855" rx="14.7589" ry="14.7588"/>
    <ellipse id="_355505384" class="fil2" cx="1313.59" cy="994.625" rx="14.7589" ry="14.7588"/>
   </g>
   <g>
    <ellipse id="_355505672" class="fil3" cx="1313.59" cy="1106.98" rx="18.8003" ry="18.8003"/>
    <ellipse id="_355505624" class="fil3" cx="1313.59" cy="1168.75" rx="18.8003" ry="18.8003"/>
    <ellipse id="_355505768" class="fil4" cx="1313.59" cy="1106.98" rx="14.7589" ry="14.7588"/>
    <ellipse id="_355505312" class="fil2" cx="1313.59" cy="1168.75" rx="14.7589" ry="14.7588"/>
   </g>
   <g>
    <ellipse id="_355505456" class="fil3" cx="1313.59" cy="1281.11" rx="18.8003" ry="18.8003"/>
    <ellipse id="_355504808" class="fil3" cx="1313.59" cy="1342.88" rx="18.8003" ry="18.8003"/>
    <ellipse id="_355504640" class="fil4" cx="1313.59" cy="1281.11" rx="14.7589" ry="14.7588"/>
    <ellipse id="_355504784" class="fil2" cx="1313.59" cy="1342.88" rx="14.7589" ry="14.7588"/>
   </g>
   <path id="_355504496" class="fil2" d="M565.112 280.4l0 301.321 -0.532678 0 0 0c0,13.474 -67.741,24.3981 -151.961,24.3981 -84.2209,0 -152.493,-10.924 -152.493,-24.3981l0 0 0 -301.321 0 -0.0011811c0,-0.484252 0.0980316,-0.967324 0.272835,-1.44331 4.67363,-12.8043 71.0339,-22.9547 152.221,-22.9547 84.2162,0 152.489,10.9217 152.493,24.3981l0 0.0011811z"/>
   <path id="_355504448" class="fil2" d="M1787.88 280.399l0 301.321 -0.532678 0 0 0c0,13.474 -67.741,24.3981 -151.961,24.3981 -84.2209,0 -152.493,-10.924 -152.493,-24.3981l0 0 0 -301.321 0 -0.0011811c0,-0.484252 0.0980316,-0.967324 0.272835,-1.44331 4.67363,-12.8043 71.0339,-22.9547 152.221,-22.9547 84.2162,0 152.489,10.9217 152.493,24.3981l0 0.0011811z"/>
   <path id="_355512056" class="fil2" d="M565.112 1466.28l0 301.321 -0.532678 0 0 0c0,13.474 -67.741,24.3981 -151.961,24.3981 -84.2209,0 -152.493,-10.924 -152.493,-24.3981l0 0 0 -301.321 0 -0.0011811c0,-0.484252 0.0980316,-0.967324 0.272835,-1.44331 4.67363,-12.8043 71.0339,-22.9547 152.221,-22.9547 84.2162,0 152.489,10.9217 152.493,24.3981l0 0.0011811z"/>
   <path id="_355512032" class="fil2" d="M1787.87 1466.28l0 301.321 -0.532678 0 0 0c0,13.474 -67.741,24.3981 -151.961,24.3981 -84.2209,0 -152.493,-10.924 -152.493,-24.3981l0 0 0 -301.321 0 -0.0011811c0,-0.484252 0.0980316,-0.967324 0.272835,-1.44331 4.67363,-12.8043 71.0339,-22.9547 152.221,-22.9547 84.2162,0 152.489,10.9217 152.493,24.3981l0 0.0011811z"/>
   <path id="_355512008" class="fil5" d="M1635.38 255.999l0 318.117 0 32.0008c10.9854,0 21.6898,-0.185433 32.0008,-0.538583 68.7378,-2.35512 119.96,-12.1429 119.96,-23.8595l0.532678 0 0 -301.322c-0.00472441,-13.4764 -68.2772,-24.3981 -152.493,-24.3981z"/>
   <path id="_355512344" class="fil5" d="M1635.38 1441.88l0 318.117 0 32.0008c10.9854,0 21.6898,-0.185433 32.0008,-0.538583 68.7378,-2.35512 119.96,-12.1429 119.96,-23.8595l0.532678 0 0 -301.322c-0.00472441,-13.4764 -68.2772,-24.3981 -152.493,-24.3981z"/>
   <path id="_355511480" class="fil5" d="M412.618 1441.88l0 318.117 0 32.0008c10.9854,0 21.6898,-0.185433 32.0008,-0.538583 68.7378,-2.35512 119.96,-12.1429 119.96,-23.8595l0.532678 0 0 -301.322c-0.00472441,-13.4764 -68.2772,-24.3981 -152.493,-24.3981z"/>
   <path id="_355511384" class="fil5" d="M412.618 256.002l0 318.117 0 32.0008c10.9854,0 21.6898,-0.185433 32.0008,-0.538583 68.7378,-2.35512 119.96,-12.1429 119.96,-23.8595l0.532678 0 0 -301.322c-0.00472441,-13.4764 -68.2772,-24.3981 -152.493,-24.3981z"/>
  </g>
 </g>
 <rect class="fil6" width="2048" height="2048"/>
</svg>
