<?xml version="1.0" encoding="utf-8"?>
<!-- Generator: Adobe Illustrator 24.0.0, SVG Export Plug-In . SVG Version: 6.00 Build 0)  -->
<svg version="1.1" id="Layer_1" xmlns="http://www.w3.org/2000/svg" xmlns:xlink="http://www.w3.org/1999/xlink" x="0px" y="0px"
	 viewBox="0 0 256 256" style="enable-background:new 0 0 256 256;" xml:space="preserve">
<style type="text/css">
	.st0{fill:#382B73;}
	.st1{fill:#291B4A;}
	.st2{fill:#ED9ABC;}
	.st3{fill:#E54890;}
	.st4{fill:#D3D3D3;}
	.st5{fill:#EBE7F2;}
	.st6{fill:#F9B087;}
	.st7{fill:#FF8639;}
	.st8{fill:#65C1D6;}
	.st9{fill:#149CB2;}
</style>
<g>
	<g>
		<g>
			<g>
				<g>
					
						<ellipse transform="matrix(0.7071 -0.7071 0.7071 0.7071 -53.0193 128)" class="st0" cx="128" cy="128" rx="119.4" ry="119.4"/>
				</g>
			</g>
		</g>
	</g>
	<g>
		<g>
			<g>
				<g>
					<path class="st1" d="M57.17,160.878c-6.625,0-12.016,5.39-12.016,12.016c0,6.625,5.391,12.015,12.016,12.015
						s12.015-5.39,12.015-12.015c0-1.295-0.212-2.539-0.592-3.708l9.85-5.687c10.02,15.709,27.285,26.359,47.058,27.191v11.348
						c-5.429,1.154-9.516,5.982-9.516,11.75c0,6.625,5.391,12.015,12.016,12.015s12.016-5.39,12.016-12.015
						c0-5.768-4.087-10.595-9.516-11.75V190.69c19.772-0.833,37.038-11.483,47.058-27.191l9.85,5.687
						c-0.38,1.169-0.592,2.414-0.592,3.708c0,6.625,5.39,12.015,12.015,12.015s12.016-5.39,12.016-12.015
						c0-6.625-5.391-12.016-12.016-12.016c-3.536,0-6.71,1.545-8.911,3.984l-9.853-5.689c4.262-8.133,6.687-17.373,6.687-27.174
						s-2.425-19.041-6.687-27.174l9.853-5.689c2.201,2.439,5.375,3.984,8.911,3.984c6.625,0,12.016-5.39,12.016-12.016
						c0-6.625-5.391-12.015-12.016-12.015s-12.015,5.39-12.015,12.015c0,1.295,0.212,2.539,0.592,3.708l-9.85,5.687
						c-10.02-15.709-27.285-26.359-47.058-27.191V61.962c5.429-1.154,9.516-5.982,9.516-11.75c0-6.625-5.391-12.015-12.016-12.015
						s-12.016,5.39-12.016,12.015c0,5.768,4.087,10.595,9.516,11.75V73.31c-19.772,0.833-37.038,11.483-47.058,27.191l-9.85-5.687
						c0.38-1.169,0.592-2.414,0.592-3.708c0-6.625-5.39-12.015-12.015-12.015s-12.016,5.39-12.016,12.015
						c0,6.625,5.391,12.016,12.016,12.016c3.536,0,6.71-1.545,8.911-3.984l9.853,5.689c-4.262,8.133-6.687,17.373-6.687,27.174
						s2.425,19.041,6.687,27.174l-9.853,5.689C63.88,162.423,60.706,160.878,57.17,160.878z M57.17,179.909
						c-3.868,0-7.016-3.147-7.016-7.015c0-3.869,3.147-7.016,7.016-7.016s7.015,3.147,7.015,7.016
						C64.185,176.762,61.038,179.909,57.17,179.909z M198.83,165.878c3.868,0,7.016,3.147,7.016,7.016
						c0,3.868-3.147,7.015-7.016,7.015s-7.015-3.147-7.015-7.015C191.815,169.025,194.962,165.878,198.83,165.878z M198.83,84.091
						c3.868,0,7.016,3.147,7.016,7.015c0,3.869-3.147,7.016-7.016,7.016s-7.015-3.147-7.015-7.016
						C191.815,87.238,194.962,84.091,198.83,84.091z M57.17,98.122c-3.868,0-7.016-3.147-7.016-7.016
						c0-3.868,3.147-7.015,7.016-7.015s7.015,3.147,7.015,7.015C64.185,94.975,61.038,98.122,57.17,98.122z M87.79,167.619
						c3.936-2.182,8.495-3.999,13.482-5.416c2.794,8.998,6.819,16.385,11.671,21.389C103.102,180.715,94.423,175.098,87.79,167.619z
						 M106.234,160.959c6.032-1.324,12.552-2.098,19.292-2.251v26.785C117.544,183.851,110.49,174.378,106.234,160.959z
						 M135.016,213.788c0,3.868-3.147,7.015-7.016,7.015s-7.016-3.147-7.016-7.015s3.147-7.015,7.016-7.015
						S135.016,209.919,135.016,213.788z M130.525,185.485v-26.775c6.726,0.155,13.227,0.927,19.241,2.247
						C145.52,174.349,138.487,183.813,130.525,185.485z M143.056,183.592c4.853-5.004,8.878-12.393,11.672-21.392
						c4.987,1.418,9.546,3.234,13.483,5.417C161.579,175.097,152.899,180.714,143.056,183.592z M171.387,163.682
						c-4.444-2.557-9.625-4.675-15.319-6.292c1.716-6.946,2.738-14.676,2.911-22.89h22.711
						C181.189,145.379,177.436,155.42,171.387,163.682z M171.386,100.316c6.05,8.262,9.803,18.304,10.304,29.184h-22.711
						c-0.173-8.216-1.195-15.947-2.912-22.894C161.762,104.989,166.944,102.872,171.386,100.316z M168.209,96.38
						c-3.936,2.182-8.494,3.999-13.482,5.417c-2.794-8.997-6.819-16.385-11.671-21.389C152.898,83.285,161.577,88.902,168.209,96.38
						z M130.525,78.515c7.961,1.671,14.993,11.135,19.241,24.526c-6.017,1.321-12.519,2.095-19.241,2.25V78.515z M151.127,107.851
						c1.834,7.309,2.884,15.528,2.884,24.149c0,8.621-1.049,16.838-2.883,24.147c-7.199-1.606-15.032-2.471-23.098-2.473
						c-0.001,0-0.003,0-0.004,0c-0.001,0-0.002,0-0.003,0c-0.007,0-0.015,0-0.022,0c-8.07,0-15.915,0.866-23.127,2.475
						c-1.834-7.309-2.883-15.528-2.883-24.149c0-8.621,1.049-16.838,2.883-24.147c7.208,1.608,15.052,2.473,23.128,2.473
						c0.007,0,0.015,0,0.022,0c0.001,0,0.002,0,0.003,0c0.001,0,0.003,0,0.004,0C136.089,110.324,143.924,109.458,151.127,107.851z
						 M120.984,50.212c0-3.868,3.147-7.015,7.016-7.015s7.016,3.147,7.016,7.015s-3.147,7.015-7.016,7.015
						S120.984,54.081,120.984,50.212z M125.525,78.507v26.784c-6.744-0.152-13.263-0.925-19.292-2.248
						C110.489,89.623,117.543,80.149,125.525,78.507z M112.944,80.408c-4.853,5.004-8.878,12.393-11.672,21.392
						c-4.987-1.418-9.546-3.234-13.483-5.417C94.421,88.903,103.101,83.286,112.944,80.408z M84.613,100.318
						c4.443,2.557,9.624,4.675,15.319,6.292c-1.716,6.946-2.737,14.676-2.911,22.89H74.31
						C74.811,118.62,78.564,108.58,84.613,100.318z M74.31,134.5h22.711c0.173,8.216,1.195,15.947,2.912,22.894
						c-5.696,1.617-10.878,3.733-15.319,6.289C78.564,155.421,74.811,145.38,74.31,134.5z"/>
				</g>
			</g>
		</g>
		<g>
			<g>
				<g>
					<path class="st1" d="M139.944,149.282c2.943,0,5.338-2.395,5.338-5.338v-23.888c0-2.943-2.395-5.338-5.338-5.338h-23.889
						c-2.943,0-5.338,2.395-5.338,5.338v23.888c0,2.943,2.395,5.338,5.338,5.338H139.944z M115.718,143.944v-23.888
						c0-0.187,0.151-0.338,0.338-0.338h23.889c0.187,0,0.338,0.152,0.338,0.338v23.888c0,0.187-0.151,0.338-0.338,0.338h-23.889
						C115.869,144.282,115.718,144.13,115.718,143.944z"/>
				</g>
			</g>
		</g>
		<g>
			<g>
				<g>
					<path class="st1" d="M128,129.5c1.381,0,2.5-1.119,2.5-2.5s-1.119-2.5-2.5-2.5h-6.801c-1.381,0-2.5,1.119-2.5,2.5
						s1.119,2.5,2.5,2.5H128z"/>
				</g>
			</g>
		</g>
		<g>
			<g>
				<g>
					<path class="st1" d="M134.801,139.199c1.381,0,2.5-1.119,2.5-2.5s-1.119-2.5-2.5-2.5h-13.602c-1.381,0-2.5,1.119-2.5,2.5
						s1.119,2.5,2.5,2.5H134.801z"/>
				</g>
			</g>
		</g>
	</g>
	<g>
		<g>
			<g>
				<g>
					<g>
						<path class="st8" d="M130.5,71.747V55.728c0-1.381-1.119-2.5-2.5-2.5s-2.5,1.119-2.5,2.5v16.019c0,1.381,1.119,2.5,2.5,2.5
							S130.5,73.127,130.5,71.747z"/>
					</g>
				</g>
			</g>
			<g>
				<g>
					<g>
						<path class="st8" d="M130.5,200.272v-16.019c0-1.381-1.119-2.5-2.5-2.5s-2.5,1.119-2.5,2.5v16.019c0,1.381,1.119,2.5,2.5,2.5
							S130.5,201.653,130.5,200.272z"/>
					</g>
				</g>
			</g>
			<g>
				<g>
					<g>
						<g>
							<path class="st8" d="M140.016,46.212c0-6.625-5.391-12.015-12.016-12.015s-12.016,5.39-12.016,12.015
								S121.375,58.228,128,58.228S140.016,52.837,140.016,46.212z M120.984,46.212c0-3.868,3.147-7.015,7.016-7.015
								s7.016,3.147,7.016,7.015s-3.147,7.015-7.016,7.015S120.984,50.081,120.984,46.212z"/>
						</g>
					</g>
				</g>
				<g>
					<g>
						<g>
							<path class="st8" d="M140.016,209.788c0-6.625-5.391-12.015-12.016-12.015s-12.016,5.39-12.016,12.015
								s5.391,12.015,12.016,12.015S140.016,216.413,140.016,209.788z M120.984,209.788c0-3.868,3.147-7.015,7.016-7.015
								s7.016,3.147,7.016,7.015s-3.147,7.015-7.016,7.015S120.984,213.656,120.984,209.788z"/>
						</g>
					</g>
				</g>
			</g>
		</g>
		<g>
			<g>
				<g>
					<g>
						<path class="st8" d="M65.412,166.637c0.425,0,0.854-0.108,1.248-0.335l13.873-8.01c1.195-0.69,1.605-2.219,0.915-3.415
							c-0.69-1.197-2.223-1.605-3.415-0.915l-13.873,8.01c-1.195,0.69-1.605,2.219-0.915,3.415
							C63.708,166.188,64.549,166.637,65.412,166.637z"/>
					</g>
				</g>
			</g>
			<g>
				<g>
					<g>
						<path class="st8" d="M176.719,102.374c0.425,0,0.854-0.108,1.248-0.335l13.873-8.01c1.195-0.69,1.605-2.219,0.915-3.415
							c-0.69-1.197-2.222-1.605-3.415-0.915l-13.873,8.01c-1.195,0.69-1.605,2.219-0.915,3.415
							C175.015,101.926,175.855,102.374,176.719,102.374z"/>
					</g>
				</g>
			</g>
			<g>
				<g>
					<g>
						<g>
							<path class="st8" d="M69.185,168.894c0-6.625-5.39-12.016-12.015-12.016s-12.016,5.39-12.016,12.016
								c0,6.625,5.391,12.015,12.016,12.015S69.185,175.519,69.185,168.894z M50.154,168.894c0-3.869,3.147-7.016,7.016-7.016
								s7.015,3.147,7.015,7.016c0,3.868-3.146,7.015-7.015,7.015S50.154,172.762,50.154,168.894z"/>
						</g>
					</g>
				</g>
				<g>
					<g>
						<g>
							<path class="st8" d="M210.846,87.106c0-6.625-5.391-12.015-12.016-12.015s-12.015,5.39-12.015,12.015
								c0,6.625,5.39,12.016,12.015,12.016S210.846,93.731,210.846,87.106z M191.815,87.106c0-3.868,3.146-7.015,7.015-7.015
								s7.016,3.147,7.016,7.015c0,3.869-3.147,7.016-7.016,7.016S191.815,90.975,191.815,87.106z"/>
						</g>
					</g>
				</g>
			</g>
		</g>
		<g>
			<g>
				<g>
					<g>
						<path class="st8" d="M78.033,102.039c0.394,0.228,0.823,0.335,1.248,0.335c0.863,0,1.704-0.448,2.167-1.25
							c0.69-1.196,0.28-2.725-0.915-3.415l-13.873-8.01c-1.193-0.69-2.725-0.282-3.415,0.915c-0.69,1.196-0.28,2.725,0.915,3.415
							L78.033,102.039z"/>
					</g>
				</g>
			</g>
			<g>
				<g>
					<g>
						<path class="st8" d="M189.34,166.301c0.394,0.228,0.823,0.335,1.248,0.335c0.863,0,1.704-0.448,2.167-1.25
							c0.69-1.196,0.28-2.725-0.915-3.415l-13.873-8.01c-1.192-0.69-2.725-0.282-3.415,0.915c-0.69,1.196-0.28,2.725,0.915,3.415
							L189.34,166.301z"/>
					</g>
				</g>
			</g>
			<g>
				<g>
					<g>
						<g>
							<path class="st8" d="M210.846,168.894c0-6.625-5.391-12.016-12.016-12.016s-12.015,5.39-12.015,12.016
								c0,6.625,5.39,12.015,12.015,12.015S210.846,175.519,210.846,168.894z M191.815,168.894c0-3.869,3.146-7.016,7.015-7.016
								s7.016,3.147,7.016,7.016c0,3.868-3.147,7.015-7.016,7.015S191.815,172.762,191.815,168.894z"/>
						</g>
					</g>
				</g>
				<g>
					<g>
						<g>
							<path class="st8" d="M69.185,87.106c0-6.625-5.39-12.015-12.015-12.015s-12.016,5.39-12.016,12.015
								c0,6.625,5.391,12.016,12.016,12.016S69.185,93.731,69.185,87.106z M50.154,87.106c0-3.868,3.147-7.015,7.016-7.015
								s7.015,3.147,7.015,7.015c0,3.869-3.146,7.016-7.015,7.016S50.154,90.975,50.154,87.106z"/>
						</g>
					</g>
				</g>
			</g>
		</g>
		<g>
			<g>
				<g>
					<g>
						<path class="st9" d="M136.516,46.212c0-4.695-3.82-8.515-8.516-8.515s-8.516,3.82-8.516,8.515s3.82,8.515,8.516,8.515
							S136.516,50.908,136.516,46.212z M120.984,46.212c0-3.868,3.147-7.015,7.016-7.015s7.016,3.147,7.016,7.015
							s-3.147,7.015-7.016,7.015S120.984,50.081,120.984,46.212z"/>
						<path class="st9" d="M128,74.247c1.381,0,2.5-1.119,2.5-2.5V57.962c5.429-1.154,9.516-5.982,9.516-11.75
							c0-6.625-5.391-12.015-12.016-12.015s-12.016,5.39-12.016,12.015c0,5.768,4.087,10.595,9.516,11.75v13.785
							C125.5,73.127,126.619,74.247,128,74.247z M117.484,46.212c0-5.798,4.717-10.515,10.516-10.515s10.516,4.717,10.516,10.515
							c0,4.932-3.502,9.256-8.328,10.282c-0.693,0.147-1.188,0.759-1.188,1.467v13.785c0,0.551-0.449,1-1,1s-1-0.449-1-1V57.962
							c0-0.708-0.495-1.32-1.188-1.467C120.987,55.469,117.484,51.145,117.484,46.212z"/>
					</g>
				</g>
			</g>
			<g>
				<g>
					<g>
						<path class="st9" d="M119.484,209.788c0,4.695,3.82,8.515,8.516,8.515s8.516-3.82,8.516-8.515s-3.82-8.515-8.516-8.515
							S119.484,205.092,119.484,209.788z M135.016,209.788c0,3.868-3.147,7.015-7.016,7.015s-7.016-3.147-7.016-7.015
							s3.147-7.015,7.016-7.015S135.016,205.919,135.016,209.788z"/>
						<path class="st9" d="M128,181.753c-1.381,0-2.5,1.119-2.5,2.5v13.785c-5.429,1.154-9.516,5.982-9.516,11.75
							c0,6.625,5.391,12.015,12.016,12.015s12.016-5.39,12.016-12.015c0-5.768-4.087-10.595-9.516-11.75v-13.785
							C130.5,182.873,129.381,181.753,128,181.753z M138.516,209.788c0,5.798-4.717,10.515-10.516,10.515
							s-10.516-4.717-10.516-10.515c0-4.932,3.502-9.256,8.328-10.282c0.693-0.147,1.188-0.759,1.188-1.467v-13.785
							c0-0.551,0.449-1,1-1s1,0.449,1,1v13.785c0,0.708,0.495,1.32,1.188,1.467C135.013,200.531,138.516,204.855,138.516,209.788z"
							/>
					</g>
				</g>
			</g>
			<g>
				<g>
					<g>
						<path class="st9" d="M57.17,160.378c-4.696,0-8.516,3.82-8.516,8.516c0,4.695,3.82,8.515,8.516,8.515
							c4.695,0,8.515-3.82,8.515-8.515C65.685,164.198,61.865,160.378,57.17,160.378z M57.17,175.909
							c-3.868,0-7.016-3.147-7.016-7.015c0-3.869,3.147-7.016,7.016-7.016s7.015,3.147,7.015,7.016
							C64.185,172.762,61.038,175.909,57.17,175.909z"/>
						<path class="st9" d="M81.448,154.876c-0.463-0.802-1.305-1.25-2.168-1.25c-0.424,0-0.854,0.108-1.247,0.335l-11.953,6.901
							c-2.201-2.439-5.375-3.984-8.911-3.984c-6.625,0-12.016,5.39-12.016,12.016c0,6.625,5.391,12.015,12.016,12.015
							s12.015-5.39,12.015-12.015c0-1.295-0.212-2.539-0.592-3.708l11.941-6.894C81.729,157.601,82.139,156.072,81.448,154.876z
							 M79.783,156.992l-11.941,6.894c-0.614,0.354-0.896,1.089-0.676,1.763c0.344,1.057,0.518,2.149,0.518,3.244
							c0,5.798-4.717,10.515-10.515,10.515c-5.798,0-10.516-4.717-10.516-10.515c0-5.798,4.717-10.516,10.516-10.516
							c2.955,0,5.797,1.272,7.797,3.489c0.293,0.324,0.701,0.495,1.114,0.495c0.256,0,0.515-0.066,0.749-0.201l11.954-6.902
							c0.153-0.089,0.32-0.134,0.496-0.134c0.358,0,0.691,0.192,0.869,0.5C80.425,156.104,80.261,156.717,79.783,156.992z"/>
					</g>
				</g>
			</g>
			<g>
				<g>
					<g>
						<path class="st9" d="M174.552,101.124c0.463,0.802,1.304,1.25,2.167,1.25c0.425,0,0.854-0.108,1.248-0.335l11.953-6.901
							c2.201,2.439,5.375,3.984,8.911,3.984c6.625,0,12.016-5.39,12.016-12.016c0-6.625-5.391-12.015-12.016-12.015
							s-12.015,5.39-12.015,12.015c0,1.295,0.212,2.539,0.592,3.708l-11.941,6.894C174.271,98.399,173.861,99.928,174.552,101.124z
							 M176.217,99.008l11.941-6.894c0.614-0.354,0.896-1.089,0.676-1.763c-0.344-1.057-0.519-2.149-0.519-3.244
							c0-5.798,4.717-10.515,10.515-10.515c5.798,0,10.516,4.717,10.516,10.515c0,5.798-4.717,10.516-10.516,10.516
							c-2.955,0-5.797-1.272-7.797-3.489c-0.293-0.324-0.701-0.495-1.114-0.495c-0.256,0-0.515,0.066-0.749,0.201l-11.953,6.901
							c-0.154,0.089-0.321,0.134-0.497,0.134c-0.357,0-0.69-0.192-0.868-0.501C175.575,99.896,175.74,99.283,176.217,99.008z"/>
						<path class="st9" d="M198.83,95.622c4.696,0,8.516-3.82,8.516-8.516c0-4.695-3.82-8.515-8.516-8.515
							c-4.695,0-8.515,3.82-8.515,8.515C190.315,91.802,194.135,95.622,198.83,95.622z M198.83,80.091
							c3.868,0,7.016,3.147,7.016,7.015c0,3.869-3.147,7.016-7.016,7.016s-7.015-3.147-7.015-7.016
							C191.815,83.238,194.962,80.091,198.83,80.091z"/>
					</g>
				</g>
			</g>
			<g>
				<g>
					<g>
						<path class="st9" d="M57.17,75.091c-6.625,0-12.016,5.39-12.016,12.015c0,6.625,5.391,12.016,12.016,12.016
							c3.536,0,6.71-1.545,8.911-3.984l11.953,6.901c0.394,0.228,0.823,0.335,1.248,0.335c0.863,0,1.704-0.448,2.167-1.25
							c0.69-1.196,0.28-2.725-0.915-3.415l-11.941-6.894c0.38-1.169,0.592-2.414,0.592-3.708
							C69.185,80.481,63.795,75.091,57.17,75.091z M79.783,99.007c0.478,0.276,0.642,0.889,0.366,1.367
							c-0.178,0.308-0.51,0.5-0.868,0.5c-0.176,0-0.343-0.045-0.498-0.134l-11.953-6.901c-0.234-0.135-0.493-0.201-0.749-0.201
							c-0.414,0-0.822,0.171-1.114,0.495c-2,2.217-4.842,3.489-7.797,3.489c-5.798,0-10.516-4.717-10.516-10.516
							c0-5.798,4.717-10.515,10.516-10.515c5.798,0,10.515,4.717,10.515,10.515c0,1.095-0.174,2.187-0.518,3.244
							c-0.219,0.674,0.063,1.409,0.676,1.763L79.783,99.007z"/>
						<path class="st9" d="M57.17,78.591c-4.696,0-8.516,3.82-8.516,8.515c0,4.696,3.82,8.516,8.516,8.516
							c4.695,0,8.515-3.82,8.515-8.516C65.685,82.411,61.865,78.591,57.17,78.591z M57.17,94.122c-3.868,0-7.016-3.147-7.016-7.016
							c0-3.868,3.147-7.015,7.016-7.015s7.015,3.147,7.015,7.015C64.185,90.975,61.038,94.122,57.17,94.122z"/>
					</g>
				</g>
			</g>
			<g>
				<g>
					<g>
						<path class="st9" d="M198.83,177.409c4.696,0,8.516-3.82,8.516-8.515c0-4.696-3.82-8.516-8.516-8.516
							c-4.695,0-8.515,3.82-8.515,8.516C190.315,173.589,194.135,177.409,198.83,177.409z M198.83,161.878
							c3.868,0,7.016,3.147,7.016,7.016c0,3.868-3.147,7.015-7.016,7.015s-7.015-3.147-7.015-7.015
							C191.815,165.025,194.962,161.878,198.83,161.878z"/>
						<path class="st9" d="M198.83,180.909c6.625,0,12.016-5.39,12.016-12.015c0-6.625-5.391-12.016-12.016-12.016
							c-3.536,0-6.71,1.545-8.911,3.984l-11.953-6.901c-0.393-0.227-0.823-0.335-1.247-0.335c-0.864,0-1.705,0.448-2.168,1.25
							c-0.69,1.196-0.28,2.725,0.915,3.415l11.941,6.894c-0.38,1.169-0.592,2.414-0.592,3.708
							C186.815,175.519,192.205,180.909,198.83,180.909z M176.217,156.993c-0.478-0.276-0.642-0.889-0.366-1.367
							c0.178-0.308,0.511-0.5,0.869-0.5c0.176,0,0.342,0.045,0.497,0.134l11.953,6.901c0.234,0.135,0.493,0.201,0.749,0.201
							c0.414,0,0.822-0.171,1.114-0.495c2-2.217,4.842-3.489,7.797-3.489c5.798,0,10.516,4.717,10.516,10.516
							c0,5.798-4.717,10.515-10.516,10.515c-5.798,0-10.515-4.717-10.515-10.515c0-1.095,0.174-2.187,0.519-3.244
							c0.219-0.674-0.063-1.409-0.676-1.763L176.217,156.993z"/>
					</g>
				</g>
			</g>
		</g>
		<g>
			<g>
				<g>
					<g>
						<g>
							<g>
								<path class="st6" d="M128,186.753c32.396,0,58.753-26.356,58.753-58.753S160.396,69.247,128,69.247
									S69.247,95.603,69.247,128S95.604,186.753,128,186.753z M128,74.247c29.64,0,53.753,24.114,53.753,53.753
									S157.64,181.753,128,181.753S74.247,157.64,74.247,128S98.36,74.247,128,74.247z"/>
							</g>
						</g>
					</g>
					<g>
						<g>
							<g>
								<path class="st6" d="M159.011,128c0-32.946-13.621-58.753-31.011-58.753S96.989,95.054,96.989,128
									S110.61,186.753,128,186.753S159.011,160.946,159.011,128z M101.989,128c0-29.137,11.911-53.753,26.011-53.753
									S154.011,98.863,154.011,128S142.1,181.753,128,181.753S101.989,157.137,101.989,128z"/>
							</g>
						</g>
					</g>
					<g>
						<g>
							<g>
								<g>
									<path class="st6" d="M128,106.326c17.263,0,33.538-3.917,44.654-10.748c1.177-0.723,1.544-2.262,0.821-3.438
										c-0.722-1.177-2.262-1.544-3.438-0.821c-10.351,6.36-25.673,10.007-42.037,10.007c-16.502,0-31.905-3.698-42.261-10.146
										c-1.172-0.73-2.714-0.373-3.443,0.801c-0.729,1.172-0.371,2.714,0.801,3.443C94.223,102.353,110.59,106.326,128,106.326z"
										/>
								</g>
							</g>
						</g>
						<g>
							<g>
								<g>
									<path class="st6" d="M85.942,164.693c10.353-6.368,25.682-10.02,42.058-10.02c16.505,0,31.911,3.7,42.269,10.15
										c0.411,0.256,0.867,0.378,1.319,0.378c0.834,0,1.65-0.418,2.124-1.179c0.729-1.172,0.372-2.714-0.801-3.444
										c-11.128-6.931-27.497-10.906-44.911-10.906c-17.275,0-33.56,3.922-44.677,10.761c-1.177,0.723-1.543,2.263-0.82,3.439
										C83.229,165.051,84.769,165.416,85.942,164.693z"/>
								</g>
							</g>
						</g>
					</g>
					<g>
						<g>
							<g>
								<path class="st6" d="M183.383,130.5c1.381,0,2.5-1.119,2.5-2.5s-1.119-2.5-2.5-2.5h-26.872c-1.381,0-2.5,1.119-2.5,2.5
									s1.119,2.5,2.5,2.5H183.383z"/>
							</g>
						</g>
					</g>
					<g>
						<g>
							<g>
								<path class="st6" d="M99.489,130.5c1.381,0,2.5-1.119,2.5-2.5s-1.119-2.5-2.5-2.5H72.617c-1.381,0-2.5,1.119-2.5,2.5
									s1.119,2.5,2.5,2.5H99.489z"/>
							</g>
						</g>
					</g>
					<g>
						<g>
							<g>
								<path class="st6" d="M130.525,103.826V73.088c0-1.381-1.119-2.5-2.5-2.5s-2.5,1.119-2.5,2.5v30.738
									c0,1.381,1.119,2.5,2.5,2.5S130.525,105.207,130.525,103.826z"/>
							</g>
						</g>
					</g>
					<g>
						<g>
							<g>
								<path class="st6" d="M130.525,183.569v-31.396c0-1.381-1.119-2.5-2.5-2.5s-2.5,1.119-2.5,2.5v31.396
									c0,1.381,1.119,2.5,2.5,2.5S130.525,184.95,130.525,183.569z"/>
							</g>
						</g>
					</g>
				</g>
			</g>
		</g>
		<g>
			<g>
				<g>
					<path class="st7" d="M87.061,93.695c3.99,2.212,8.633,4.079,13.8,5.548c0.137,0.039,0.275,0.058,0.411,0.058
						c0.641,0,1.233-0.414,1.432-1.056c2.726-8.779,6.639-15.97,11.317-20.793c0.474-0.489,0.559-1.236,0.208-1.819
						c-0.277-0.459-0.769-0.726-1.285-0.726c-0.14,0-0.281,0.02-0.421,0.06c-9.977,2.917-18.918,8.594-25.857,16.42
						c-0.302,0.341-0.433,0.8-0.356,1.248S86.663,93.474,87.061,93.695z M112.944,76.408c-4.853,5.004-8.878,12.393-11.672,21.392
						c-4.987-1.418-9.546-3.234-13.483-5.417C94.421,84.903,103.101,79.286,112.944,76.408z"/>
					<path class="st7" d="M181.689,129h-22.711c-0.816,0-1.482,0.652-1.5,1.468c-0.168,7.949-1.133,15.54-2.867,22.562
						c-0.194,0.785,0.269,1.582,1.047,1.803c5.626,1.597,10.666,3.666,14.981,6.149c0.235,0.135,0.492,0.2,0.747,0.2
						c0.464,0,0.92-0.216,1.211-0.614c6.429-8.781,10.092-19.154,10.591-29.999c0.019-0.409-0.131-0.809-0.414-1.105
						C182.491,129.168,182.099,129,181.689,129z M171.387,159.682c-4.444-2.557-9.625-4.675-15.319-6.292
						c1.716-6.946,2.738-14.676,2.911-22.89h22.711C181.189,141.379,177.436,151.42,171.387,159.682z"/>
					<path class="st7" d="M168.939,162.305c-3.991-2.213-8.634-4.079-13.8-5.548c-0.137-0.039-0.275-0.058-0.411-0.058
						c-0.641,0-1.233,0.414-1.432,1.056c-2.726,8.779-6.639,15.969-11.317,20.793c-0.474,0.489-0.559,1.236-0.208,1.819
						c0.277,0.459,0.769,0.726,1.285,0.726c0.14,0,0.281-0.02,0.421-0.06c9.977-2.917,18.918-8.594,25.856-16.42
						c0.302-0.341,0.433-0.8,0.356-1.248C169.613,162.915,169.337,162.526,168.939,162.305z M143.056,179.592
						c4.853-5.004,8.878-12.393,11.672-21.392c4.987,1.418,9.546,3.234,13.483,5.417
						C161.579,171.097,152.899,176.714,143.056,179.592z"/>
					<path class="st7" d="M128,186.753c32.396,0,58.753-26.356,58.753-58.753S160.396,69.247,128,69.247S69.247,95.603,69.247,128
						S95.604,186.753,128,186.753z M128,70.747c31.569,0,57.253,25.684,57.253,57.253S159.569,185.253,128,185.253
						S70.747,159.57,70.747,128S96.431,70.747,128,70.747z"/>
					<path class="st7" d="M125.525,153.208c-0.011,0-0.023,0-0.034,0c-6.782,0.153-13.37,0.922-19.579,2.285
						c-0.412,0.09-0.766,0.35-0.977,0.715c-0.211,0.365-0.258,0.802-0.131,1.204c4.604,14.515,12.047,23.828,20.419,25.55
						c0.1,0.021,0.202,0.031,0.302,0.031c0.342,0,0.678-0.117,0.948-0.337c0.349-0.285,0.552-0.712,0.552-1.163v-26.785
						c0-0.404-0.163-0.79-0.451-1.073C126.293,153.361,125.917,153.208,125.525,153.208z M125.525,181.493
						c-7.982-1.642-15.035-11.115-19.292-24.534c6.032-1.324,12.552-2.098,19.292-2.251V181.493z"/>
					<path class="st7" d="M151.066,156.206c-0.211-0.365-0.566-0.625-0.977-0.715c-6.19-1.359-12.76-2.126-19.529-2.282
						c-0.012,0-0.023,0-0.035,0c-0.391,0-0.768,0.153-1.048,0.427c-0.289,0.282-0.452,0.669-0.452,1.073v26.775
						c0,0.452,0.204,0.88,0.555,1.165c0.27,0.219,0.604,0.335,0.945,0.335c0.103,0,0.206-0.011,0.308-0.032
						c8.349-1.753,15.771-11.063,20.363-25.542C151.324,157.008,151.277,156.571,151.066,156.206z M130.525,181.485v-26.775
						c6.726,0.155,13.227,0.927,19.241,2.247C145.52,170.349,138.487,179.813,130.525,181.485z"/>
					<path class="st7" d="M112.523,181.032c0.139,0.041,0.281,0.06,0.421,0.06c0.516,0,1.008-0.267,1.285-0.726
						c0.352-0.583,0.266-1.33-0.208-1.819c-4.677-4.823-8.589-12.012-11.316-20.79c-0.199-0.642-0.791-1.056-1.432-1.055
						c-0.136,0-0.274,0.019-0.411,0.058c-5.165,1.468-9.808,3.335-13.799,5.547c-0.398,0.221-0.674,0.61-0.751,1.059
						c-0.077,0.449,0.054,0.908,0.356,1.248C93.607,172.438,102.547,178.115,112.523,181.032z M101.272,158.203
						c2.794,8.998,6.819,16.385,11.671,21.389c-9.842-2.877-18.521-8.494-25.153-15.973
						C91.727,161.437,96.285,159.62,101.272,158.203z"/>
					<path class="st7" d="M104.871,102.353c-0.673,0-1.283,0.456-1.454,1.135c-1.943,7.745-2.928,15.992-2.928,24.512
						c0,8.521,0.985,16.769,2.929,24.514c0.17,0.679,0.781,1.135,1.454,1.135c0.108,0,0.218-0.012,0.328-0.036
						c7.25-1.618,14.916-2.439,22.811-2.439c0.006,0,0.013,0,0.019,0c7.873,0.002,15.534,0.822,22.772,2.437
						c0.11,0.025,0.22,0.036,0.328,0.036c0.673,0,1.283-0.456,1.454-1.135c1.943-7.745,2.928-15.992,2.928-24.512
						c0-8.521-0.985-16.769-2.929-24.515c-0.171-0.679-0.781-1.135-1.454-1.135c-0.108,0-0.218,0.012-0.328,0.036
						c-7.243,1.616-14.904,2.437-22.771,2.439c-0.012,0-0.023,0-0.035,0c-7.879,0-15.549-0.82-22.796-2.437
						C105.089,102.364,104.979,102.353,104.871,102.353z M128,106.326c0.007,0,0.015,0,0.022,0c0.001,0,0.002,0,0.003,0
						c0.001,0,0.003,0,0.004,0c8.059-0.002,15.895-0.868,23.098-2.475c1.834,7.309,2.884,15.528,2.884,24.149
						c0,8.621-1.049,16.838-2.883,24.147c-7.199-1.606-15.032-2.471-23.098-2.473c-0.001,0-0.003,0-0.004,0
						c-0.001,0-0.002,0-0.003,0c-0.007,0-0.015,0-0.022,0c-8.07,0-15.915,0.866-23.127,2.475
						c-1.834-7.309-2.883-15.528-2.883-24.149c0-8.621,1.049-16.838,2.883-24.147C112.08,105.461,119.924,106.326,128,106.326z"/>
					<path class="st7" d="M154.61,102.965c1.735,7.022,2.7,14.615,2.868,22.566c0.017,0.816,0.684,1.468,1.5,1.468h22.711
						c0.41,0,0.802-0.168,1.085-0.464c0.283-0.296,0.432-0.696,0.414-1.105c-0.499-10.845-4.162-21.22-10.592-30.001
						c-0.292-0.398-0.747-0.614-1.211-0.614c-0.255,0-0.512,0.065-0.747,0.2c-4.311,2.481-9.351,4.549-14.98,6.146
						C154.879,101.383,154.417,102.181,154.61,102.965z M171.386,96.316c6.05,8.262,9.803,18.304,10.304,29.184h-22.711
						c-0.173-8.216-1.195-15.947-2.912-22.894C161.762,100.989,166.944,98.872,171.386,96.316z"/>
					<path class="st7" d="M74.31,127h22.711c0.816,0,1.482-0.652,1.5-1.468c0.168-7.949,1.132-15.54,2.867-22.562
						c0.194-0.785-0.269-1.582-1.047-1.803c-5.626-1.597-10.666-3.666-14.981-6.149c-0.235-0.135-0.492-0.2-0.747-0.2
						c-0.464,0-0.919,0.216-1.211,0.614c-6.429,8.781-10.092,19.154-10.591,29.999c-0.019,0.409,0.131,0.809,0.414,1.105
						C73.509,126.832,73.901,127,74.31,127z M84.613,96.318c4.443,2.557,9.624,4.675,15.319,6.292
						c-1.716,6.946-2.737,14.676-2.911,22.89H74.31C74.811,114.62,78.564,104.58,84.613,96.318z"/>
					<path class="st7" d="M104.934,99.794c0.211,0.365,0.566,0.624,0.977,0.715c6.205,1.362,12.792,2.13,19.58,2.282
						c0.011,0,0.023,0,0.034,0c0.391,0,0.768-0.153,1.049-0.427c0.289-0.282,0.451-0.669,0.451-1.073V74.507
						c0-0.451-0.203-0.878-0.552-1.163c-0.27-0.22-0.606-0.337-0.948-0.337c-0.101,0-0.202,0.01-0.302,0.031
						c-8.373,1.722-15.816,11.036-20.42,25.552C104.676,98.992,104.723,99.429,104.934,99.794z M125.525,74.507v26.784
						c-6.744-0.152-13.263-0.925-19.292-2.248C110.489,85.623,117.543,76.149,125.525,74.507z"/>
					<path class="st7" d="M130.525,102.791c0.012,0,0.023,0,0.035,0c6.762-0.156,13.333-0.924,19.528-2.284
						c0.412-0.09,0.766-0.35,0.977-0.715c0.211-0.365,0.258-0.802,0.131-1.204c-4.593-14.479-12.014-23.788-20.362-25.54
						c-0.102-0.021-0.206-0.032-0.308-0.032c-0.341,0-0.676,0.117-0.945,0.336c-0.351,0.285-0.555,0.713-0.555,1.165v26.776
						c0,0.404,0.163,0.791,0.452,1.073C129.758,102.638,130.134,102.791,130.525,102.791z M130.525,74.515
						c7.961,1.671,14.993,11.135,19.241,24.526c-6.017,1.321-12.519,2.095-19.241,2.25V74.515z"/>
					<path class="st7" d="M101.389,153.034c-1.735-7.022-2.7-14.615-2.868-22.566c-0.017-0.816-0.684-1.468-1.5-1.468H74.31
						c-0.41,0-0.802,0.168-1.085,0.464c-0.283,0.296-0.432,0.696-0.414,1.105c0.499,10.845,4.162,21.219,10.592,30.001
						c0.292,0.398,0.747,0.614,1.211,0.614c0.255,0,0.512-0.065,0.747-0.2c4.311-2.481,9.351-4.549,14.981-6.146
						C101.12,154.616,101.583,153.819,101.389,153.034z M84.614,159.683c-6.05-8.262-9.803-18.303-10.304-29.183h22.711
						c0.173,8.216,1.195,15.947,2.912,22.894C94.237,155.011,89.056,157.128,84.614,159.683z"/>
					<path class="st7" d="M153.295,98.242c0.199,0.642,0.791,1.055,1.432,1.055c0.136,0,0.274-0.019,0.411-0.058
						c5.165-1.468,9.807-3.334,13.799-5.547c0.398-0.221,0.674-0.61,0.751-1.059c0.077-0.449-0.054-0.908-0.356-1.248
						c-6.938-7.824-15.879-13.501-25.854-16.417c-0.139-0.041-0.281-0.06-0.421-0.06c-0.516,0-1.008,0.267-1.285,0.726
						c-0.352,0.583-0.266,1.33,0.208,1.819C146.656,82.275,150.569,89.464,153.295,98.242z M168.209,92.38
						c-3.936,2.182-8.494,3.999-13.482,5.417c-2.794-8.997-6.819-16.385-11.671-21.389C152.898,79.285,161.577,84.902,168.209,92.38
						z"/>
				</g>
			</g>
		</g>
		<g>
			<g>
				<g>
					<path class="st8" d="M139.944,145.282c2.943,0,5.338-2.395,5.338-5.338v-23.888c0-2.943-2.395-5.338-5.338-5.338h-23.889
						c-2.943,0-5.338,2.395-5.338,5.338v23.888c0,2.943,2.395,5.338,5.338,5.338H139.944z M115.718,139.944v-23.888
						c0-0.187,0.151-0.338,0.338-0.338h23.889c0.187,0,0.338,0.152,0.338,0.338v23.888c0,0.187-0.151,0.338-0.338,0.338h-23.889
						C115.869,140.282,115.718,140.13,115.718,139.944z"/>
				</g>
			</g>
		</g>
		<g>
			<g>
				<g>
					<g>
						<path class="st9" d="M139.944,145.282c2.943,0,5.338-2.395,5.338-5.338v-23.888c0-2.943-2.395-5.338-5.338-5.338h-23.889
							c-2.943,0-5.338,2.395-5.338,5.338v23.888c0,2.943,2.395,5.338,5.338,5.338H139.944z M112.218,139.944v-23.888
							c0-2.117,1.722-3.838,3.838-3.838h23.889c2.116,0,3.838,1.722,3.838,3.838v23.888c0,2.117-1.722,3.838-3.838,3.838h-23.889
							C113.939,143.782,112.218,142.06,112.218,139.944z"/>
						<path class="st9" d="M139.944,141.782c1.013,0,1.838-0.825,1.838-1.838v-23.888c0-1.014-0.824-1.838-1.838-1.838h-23.889
							c-1.013,0-1.838,0.825-1.838,1.838v23.888c0,1.014,0.824,1.838,1.838,1.838H139.944z M115.718,139.944v-23.888
							c0-0.187,0.151-0.338,0.338-0.338h23.889c0.187,0,0.338,0.152,0.338,0.338v23.888c0,0.187-0.151,0.338-0.338,0.338h-23.889
							C115.869,140.282,115.718,140.13,115.718,139.944z"/>
					</g>
				</g>
			</g>
		</g>
		<g>
			<g>
				<g>
					<path class="st4" d="M128,125.5c1.381,0,2.5-1.119,2.5-2.5s-1.119-2.5-2.5-2.5h-6.801c-1.381,0-2.5,1.119-2.5,2.5
						s1.119,2.5,2.5,2.5H128z"/>
				</g>
			</g>
		</g>
		<g>
			<g>
				<g>
					<path class="st4" d="M134.801,135.199c1.381,0,2.5-1.119,2.5-2.5s-1.119-2.5-2.5-2.5h-13.602c-1.381,0-2.5,1.119-2.5,2.5
						s1.119,2.5,2.5,2.5H134.801z"/>
				</g>
			</g>
		</g>
		<g>
			<g>
				<g>
					<g>
						<path class="st5" d="M128,125.5c1.381,0,2.5-1.119,2.5-2.5s-1.119-2.5-2.5-2.5h-6.801c-1.381,0-2.5,1.119-2.5,2.5
							s1.119,2.5,2.5,2.5H128z M120.199,123c0-0.551,0.449-1,1-1H128c0.551,0,1,0.449,1,1s-0.449,1-1,1h-6.801
							C120.648,124,120.199,123.551,120.199,123z"/>
					</g>
				</g>
			</g>
		</g>
		<g>
			<g>
				<g>
					<g>
						<path class="st5" d="M134.801,135.199c1.381,0,2.5-1.119,2.5-2.5s-1.119-2.5-2.5-2.5h-13.602c-1.381,0-2.5,1.119-2.5,2.5
							s1.119,2.5,2.5,2.5H134.801z M120.199,132.699c0-0.551,0.449-1,1-1h13.602c0.551,0,1,0.449,1,1s-0.449,1-1,1h-13.602
							C120.648,133.699,120.199,133.251,120.199,132.699z"/>
					</g>
				</g>
			</g>
		</g>
	</g>
</g>
</svg>
